# xmcd
#
# Track frame offsets:
#	150
#	18479
#	35136
#	52362
#	64005
#	79214
#	97378
#	112812
#	135088
#	153190
#	169042
#	186057
#	203864
#	219410
#	235541
#	269215
#
# Disc length: 3597 seconds
#
# Revision: 1
# Processed by: cddbd v1.5.1PL0 Copyright (c) Steve Scherf et al.
# Submitted via: audiograbber 1.83.01
#
DISCID=e20e0b10
DTITLE=Various Artist - Country Best Of Fall 2004
DYEAR=1900
DGENRE=Karaoke
TTITLE0=Andy Griggs - She Thinks She Needs Me
TTITLE1=Big and Rich - Savbe A Horse(Ride A Cowboy)
TTITLE2=Chely Wright - Back Of The Bottom Drawer
TTITLE3=Craig Morgan - Look At Us
TTITLE4=Gretchen Wilson - Here For The Party
TTITLE5=Joe Nichols - If Nobody Believed In You
TTITLE6=Josh Turner - What It Ain't
TTITLE7=Keith Urban - You'll Think Of Me
TTITLE8=Matina McBride - How Far
TTITLE9=Phil Vassar - In A Real Love
TTITLE10=Rachel Proctor - Me And Emily
TTITLE11=Sara Evans - Suds In The Bucket
TTITLE12=Steve Holy - Put Your Best Dress On
TTITLE13=Terri Clark - Girls Lie Too
TTITLE14=Tim McGraw - Live Like You Were Dying
TTITLE15=Data Track
EXTD=
EXTT0=
EXTT1=
EXTT2=
EXTT3=
EXTT4=
EXTT5=
EXTT6=
EXTT7=
EXTT8=
EXTT9=
EXTT10=
EXTT11=
EXTT12=
EXTT13=
EXTT14=
EXTT15=
PLAYORDER=
